<?xml version="1.0" standalone="no"?>
<!DOCTYPE svg PUBLIC "-//W3C//DTD SVG 20010904//EN"
 "http://www.w3.org/TR/2001/REC-SVG-20010904/DTD/svg10.dtd">
<svg version="1.0" xmlns="http://www.w3.org/2000/svg"
 width="700.000000pt" height="700.000000pt" viewBox="0 0 700.000000 700.000000"
 preserveAspectRatio="xMidYMid meet">
<metadata>
Created by potrace 1.14, written by Peter Selinger 2001-2017
</metadata>
<g transform="translate(0.000000,700.000000) scale(0.100000,-0.100000)"
fill="#000000" stroke="none">
<path d="M1917 4658 l-1437 -893 0 -481 0 -481 1377 -677 c757 -372 1383 -674
1390 -671 8 3 346 214 751 469 405 255 1000 629 1321 830 l583 368 62 -33 c53
-29 73 -34 151 -37 118 -5 182 18 265 95 173 160 181 426 19 598 -29 31 -76
67 -108 82 -50 25 -67 28 -161 28 -96 0 -110 -2 -159 -28 -76 -40 -146 -115
-184 -195 -30 -63 -32 -74 -32 -177 1 -80 5 -120 17 -147 12 -28 14 -39 5 -46
-15 -11 -2492 -1570 -2527 -1590 -24 -13 -60 4 -770 353 -410 202 -839 414
-955 470 -115 56 -357 175 -538 263 l-327 161 0 370 0 369 1302 810 c717 445
1327 824 1355 841 l53 33 1200 -608 c660 -334 1200 -610 1200 -614 0 -6 -2355
-1519 -2535 -1629 -18 -11 -137 44 -996 463 -537 262 -979 476 -983 476 -3 0
-24 -36 -46 -81 l-41 -80 203 -98 c112 -54 574 -279 1028 -500 591 -288 829
-400 841 -394 56 27 2906 1859 2901 1865 -9 9 -2773 1408 -2782 1408 -4 0
-653 -402 -1443 -892z"/>
</g>
</svg>
